<?xml version="1.0" encoding="utf-8"?>
<svg width="22" height="33" viewBox="0 0 22 33" fill="none" xmlns="http://www.w3.org/2000/svg">
  <g filter="url(#filter0_dd)">
    <rect x="4" y="1.99951" width="14" height="25" rx="3.602" ry="3.602" style="fill: rgb(60, 63, 80);"/>
  </g>
  <path fill-rule="evenodd" clip-rule="evenodd" d="M10 10.4995C10 10.2234 9.77614 9.99951 9.5 9.99951C9.22386 9.99951 9 10.2234 9 10.4995V18.5007C9 18.7769 9.22386 19.0007 9.5 19.0007C9.77614 19.0007 10 18.7769 10 18.5007V10.4995ZM13 10.4995C13 10.2234 12.7761 9.99951 12.5 9.99951C12.2239 9.99951 12 10.2234 12 10.4995V18.5007C12 18.7769 12.2239 19.0007 12.5 19.0007C12.7761 19.0007 13 18.7769 13 18.5007V10.4995Z" fill="#A1A7BB"/>
  <defs>
    <filter id="filter0_dd" x="0" y="-0.000488281" width="22" height="33" filterUnits="userSpaceOnUse" color-interpolation-filters="sRGB">
      <feFlood flood-opacity="0" result="BackgroundImageFix"/>
      <feColorMatrix in="SourceAlpha" type="matrix" values="0 0 0 0 0 0 0 0 0 0 0 0 0 0 0 0 0 0 127 0" result="hardAlpha"/>
      <feOffset dy="2"/>
      <feGaussianBlur stdDeviation="2"/>
      <feColorMatrix type="matrix" values="0 0 0 0 0.345098 0 0 0 0 0.4 0 0 0 0 0.494118 0 0 0 0.12 0"/>
      <feBlend mode="normal" in2="BackgroundImageFix" result="effect1_dropShadow"/>
      <feColorMatrix in="SourceAlpha" type="matrix" values="0 0 0 0 0 0 0 0 0 0 0 0 0 0 0 0 0 0 127 0" result="hardAlpha"/>
      <feOffset dy="1"/>
      <feGaussianBlur stdDeviation="0.5"/>
      <feColorMatrix type="matrix" values="0 0 0 0 0.345098 0 0 0 0 0.4 0 0 0 0 0.494118 0 0 0 0.12 0"/>
      <feBlend mode="normal" in2="effect1_dropShadow" result="effect2_dropShadow"/>
      <feBlend mode="normal" in="SourceGraphic" in2="effect2_dropShadow" result="shape"/>
    </filter>
  </defs>
</svg>